# xmcd
#
# Track frame offsets:
#	150
#	12917
#	29332
#	40780
#	54720
#	68170
#	79210
#	96682
#	107930
#	125507
#	141390
#
# Disc length: 2073 seconds
#
# Revision: 4
# Processed by: cddbd v1.5.2PL0 Copyright (c) Steve Scherf et al.
# Submitted via: audiograbber 1.83.01
#
DISCID=a008170b
DTITLE=George Jones - The Bradley Barn Sessions
DYEAR=1994
DGENRE=Country
TTITLE0=One Woman Man (with Marty Stuart)
TTITLE1=A Good Year For The Roses (with Alan Jackson)
TTITLE2=Why Baby Why (with Ricky Skaggs)
TTITLE3=Golden Ring (with Tammy Wynette)
TTITLE4=Say It's Not You (with Keith Richards) 
TTITLE5=The Love Bug (with Vince Gill)
TTITLE6=Where Grass Won't Grow (with Emmylou Harris/Dolly Parton/Trisha Yearwoo
TTITLE6=d)
TTITLE7=The Race Is On (with Travis Tritt)
TTITLE8=Bartender Blues (with Trisha Yearwood)
TTITLE9=White Lightnin' (with Mark Knopfler)
TTITLE10=Good Ones And Bad Ones (with Mark Chesnutt)
EXTD=YEAR: 1994
EXTT0=With Marty Stuart
EXTT1=With Alan Jackson
EXTT2=With Ricky Skaggs
EXTT3=With Tammy Wynette
EXTT4=With Keith Richards
EXTT5=With Vince Gill
EXTT6=With Emmylou Harris/Dolly Parton/Trisha Yearwood
EXTT7=With Traviss Tritt
EXTT8=With Trisha Yearwood
EXTT9=With Mark Knopfler
EXTT10=With Mark Chesnutt
PLAYORDER=
